<?xml version="1.0" standalone="no"?>
<!DOCTYPE svg PUBLIC "-//W3C//DTD SVG 20010904//EN"
 "http://www.w3.org/TR/2001/REC-SVG-20010904/DTD/svg10.dtd">
<svg version="1.0" xmlns="http://www.w3.org/2000/svg"
 width="512.000000pt" height="512.000000pt" viewBox="0 0 512.000000 512.000000"
 preserveAspectRatio="xMidYMid meet">
<metadata>
Created by potrace 1.14, written by Peter Selinger 2001-2017
</metadata>
<g transform="translate(0.000000,512.000000) scale(0.100000,-0.100000)"
fill="#000000" stroke="none">
<path d="M2440 5051 c-245 -111 -453 -235 -660 -394 -58 -44 -107 -83 -110
-86 -3 -3 -25 -24 -50 -45 -298 -258 -564 -593 -745 -941 -116 -222 -242 -559
-271 -724 -3 -14 -11 -53 -19 -86 -7 -33 -16 -78 -19 -100 -23 -160 -28 -201
-34 -285 -28 -414 31 -748 194 -1088 100 -208 215 -372 383 -546 l96 -99 -93
49 c-139 74 -264 167 -383 284 -117 116 -179 193 -261 327 -99 161 -163 315
-203 484 -36 152 -42 165 -76 179 -45 19 -84 -2 -103 -54 -27 -75 -57 -253
-73 -427 -10 -107 -10 -530 -1 -629 16 -161 4 -142 158 -251 265 -188 638
-371 928 -455 46 -13 87 -26 90 -28 12 -7 277 -65 328 -72 27 -3 56 -8 64 -9
9 -2 43 -6 75 -10 33 -4 74 -9 90 -12 17 -3 138 -6 270 -8 254 -4 454 11 610
45 22 5 56 12 75 15 121 21 362 95 525 162 549 225 932 569 1164 1046 50 104
110 257 126 324 3 10 13 50 22 88 15 60 18 66 23 41 11 -63 3 -258 -16 -396
-36 -252 -167 -552 -340 -783 -26 -34 -100 -115 -165 -180 -128 -127 -139
-150 -101 -197 28 -34 75 -32 192 10 309 110 591 256 846 438 121 86 116 77
131 232 15 160 7 708 -11 740 -2 3 -6 28 -10 55 -3 28 -8 61 -11 75 -3 14 -10
52 -16 85 -6 33 -20 96 -31 140 -11 44 -21 85 -22 90 -26 122 -137 415 -233
610 -55 113 -199 354 -243 408 -5 7 -49 64 -97 127 -106 138 -339 375 -480
488 -216 171 -460 316 -674 398 -93 35 -278 87 -354 98 -22 4 -53 8 -70 11
-16 3 -48 7 -70 10 -67 10 -326 13 -405 4 -147 -15 -186 -22 -315 -54 -71 -18
-131 -31 -133 -30 -7 6 120 80 223 130 180 88 360 141 549 163 123 14 370 7
491 -13 45 -8 168 -36 185 -42 8 -4 17 -7 20 -8 3 -1 29 -9 59 -18 74 -23 96
-21 120 9 35 45 28 79 -29 134 -107 105 -295 246 -485 365 -153 96 -471 256
-508 255 -6 -1 -59 -22 -117 -49z m317 -1905 c56 -3 121 -8 145 -11 79 -11
229 -36 241 -40 7 -3 23 -6 37 -9 158 -27 428 -123 604 -216 211 -111 435
-287 437 -344 0 -11 3 -32 6 -46 3 -14 6 -95 6 -180 0 -131 -4 -172 -26 -267
-66 -287 -232 -554 -467 -753 -36 -30 -67 -58 -70 -61 -11 -12 -178 -118 -230
-146 -94 -50 -286 -127 -370 -148 -72 -18 -203 -45 -240 -49 -196 -22 -412
-23 -525 -2 -11 2 -42 7 -70 11 -27 5 -52 9 -55 10 -3 1 -23 5 -45 10 -22 5
-42 10 -45 10 -101 23 -248 79 -373 141 -448 223 -750 614 -823 1064 -10 64
-11 282 -1 364 8 64 12 73 51 110 114 111 278 222 452 307 70 34 132 62 138
64 6 1 22 6 36 12 32 13 150 54 170 59 8 2 58 15 110 29 158 42 343 72 515 81
55 4 101 7 102 8 3 2 188 -3 290 -8z"/>
<path d="M2599 2666 c-2 -2 -38 -7 -78 -10 -41 -4 -77 -9 -80 -11 -4 -2 -31
-6 -61 -10 -30 -4 -58 -9 -62 -12 -5 -2 -18 -6 -30 -9 -56 -11 -88 -11 -134
-3 -48 9 -149 22 -169 21 -88 -3 -185 -33 -185 -57 0 -6 30 -25 68 -42 37 -18
86 -43 110 -57 40 -22 52 -24 145 -21 116 4 100 1 307 54 180 46 335 67 363
49 26 -16 -45 -267 -117 -410 -24 -49 -40 -88 -35 -88 25 0 237 65 263 81 48
29 117 102 186 198 63 87 67 90 143 121 42 18 77 34 77 37 0 2 -7 17 -15 33
-15 29 -105 80 -142 80 -10 0 -38 10 -63 21 -53 25 -81 31 -135 28 -45 -2 -39
-2 -221 5 -73 3 -133 4 -135 2z"/>
<path d="M2336 2302 c-3 -5 -8 -31 -12 -60 -3 -28 -10 -49 -15 -46 -20 12 -7
-29 16 -51 21 -22 49 -88 40 -97 -2 -2 -6 -48 -10 -103 -3 -55 -8 -111 -10
-125 -2 -14 -6 -47 -10 -75 -10 -88 -13 -106 -36 -225 -12 -60 -77 -269 -89
-285 -11 -15 -32 -81 -22 -70 51 58 197 289 260 410 70 136 133 322 126 375
-4 31 -10 158 -13 246 -1 26 -7 34 -38 47 -21 9 -54 19 -73 23 -19 3 -47 15
-62 25 -28 20 -44 24 -52 11z"/>
</g>
</svg>
