<?xml version="1.0" encoding="UTF-8"?>
<svg id="_Слой_1" data-name="Слой_1" xmlns="http://www.w3.org/2000/svg" version="1.1" viewBox="0 0 64 64">
  <!-- Generator: Adobe Illustrator 30.0.0, SVG Export Plug-In . SVG Version: 2.1.1 Build 123)  -->
  <defs>
    <style>
      .st0 {
        fill: #fff;
      }

      .st1 {
        fill: #2563eb;
      }
    </style>
  </defs>
  <rect class="st1" width="64" height="64" rx="16" ry="16"/>
  <g>
    <polygon class="st0" points="7 40.3 7 21.1 11.6 21.1 15.7 26.9 19.9 21.1 24.5 21.1 24.5 40.3 19.8 40.3 19.8 28.6 15.8 33.9 11.7 28.6 11.7 40.3 7 40.3"/>
    <path class="st0" d="M42,21h-4.1c-1.6,0-7.4,0-9.9,6.3-1.3,3.3-2,9.6,1.8,15.8l3.9-2.8s-1.5-2.2-2.2-6.4h5.8v6.4h5.3v-14.6h-5.2v4.1h-4.9s.8-4.9,5.8-4.7h4.9l-1.1-4.1h0Z"/>
    <polygon class="st0" points="45.9 21.1 50.5 21.1 50.5 36.2 57 36.2 55.9 40.3 45.9 40.3 45.9 21.1"/>
  </g>
</svg>