<svg id="Capa_1" enable-background="new 0 0 511.956 511.956" height="512" viewBox="0 0 511.956 511.956" width="512" xmlns="http://www.w3.org/2000/svg"><g><path d="m226.099 15.103c83.877-2.754 158.837 51.613 182.208 132.254.931 3.214 3.874 5.412 7.201 5.412.083 0 .166-.001.25-.004l36.103-1.192c4.141-.137 7.386-3.604 7.249-7.743-.137-4.141-3.581-7.382-7.744-7.249l-30.366 1.003c-12.697-39.309-37.885-74.287-71.398-98.977-36.2-26.668-79.077-39.975-123.998-38.496-4.141.137-7.386 3.604-7.249 7.743.136 4.14 3.64 7.358 7.744 7.249z"/><path d="m285.857 496.852c-83.933 2.744-158.836-51.614-182.208-132.253-.955-3.294-4.055-5.543-7.45-5.408l-36.104 1.191c-4.141.137-7.386 3.604-7.249 7.743.136 4.141 3.597 7.4 7.743 7.249l30.368-1.002c12.697 39.309 37.885 74.287 71.398 98.976 34.38 25.328 74.783 38.608 117.241 38.607 2.246 0 4.499-.037 6.755-.111 4.141-.137 7.386-3.604 7.249-7.743-.136-4.14-3.624-7.386-7.743-7.249z"/><path d="m204.303 42.6c1.202-.022 2.404-.045 3.612-.045 82.179 0 154.873 55.333 176.78 134.562 1.513 5.465 6.507 9.282 12.146 9.282h31.582l-83.336 85.966-18.272-18.849c-2.883-2.972-7.631-3.048-10.605-.164-2.974 2.883-3.048 7.631-.164 10.605l20.003 20.634c2.357 2.433 5.652 3.827 9.039 3.827s6.682-1.395 9.038-3.826l89.032-91.842c3.527-3.639 4.529-9.004 2.554-13.671-1.975-4.666-6.525-7.681-11.592-7.681h-35.451c-24.27-84.782-102.451-143.842-190.754-143.842-1.302 0-2.598.022-3.894.047-4.142.078-7.436 3.498-7.358 7.64.078 4.141 3.509 7.415 7.64 7.357z"/><path d="m112.668 218.954c3.603-49.635 45.44-88.516 95.247-88.516 31.435 0 60.396 15.231 78.322 40.961h-30.182c-5.066 0-9.617 3.015-11.592 7.681-1.976 4.667-.974 10.032 2.554 13.671l48.841 50.382c1.471 1.517 3.427 2.279 5.386 2.279 1.88 0 3.763-.703 5.22-2.115 2.974-2.883 3.048-7.631.164-10.605l-44.876-46.292h28.972c4.585 0 8.807-2.493 11.018-6.507 2.22-4.028 2.069-8.949-.392-12.843-20.431-32.317-55.36-51.611-93.435-51.611-57.63 0-106.039 44.992-110.208 102.43-.023.326-.282.571-.601.571h-71.777c-.069 0-.253 0-.429-.184-.133-.14-.196-.312-.187-.513 3.771-85.374 67.62-157.92 151.816-172.499 4.082-.706 6.817-4.588 6.11-8.669-.706-4.082-4.588-6.818-8.669-6.11-43.989 7.616-84.646 30.339-114.484 63.981-30.093 33.931-47.765 77.483-49.76 122.635-.188 4.261 1.392 8.469 4.334 11.544 2.971 3.104 6.972 4.814 11.268 4.814h71.777c8.138 0 14.974-6.363 15.563-14.485z"/><path d="m497.893 283.331c-2.97-3.104-6.972-4.813-11.267-4.813h-71.776c-8.136 0-14.972 6.362-15.562 14.485-3.602 49.635-45.439 88.515-95.247 88.515-31.434 0-60.395-15.231-78.321-40.961h30.18c5.066 0 9.617-3.015 11.592-7.681 1.976-4.666.974-10.031-2.554-13.67l-89.031-91.842c-2.357-2.432-5.651-3.827-9.038-3.827 0 0 0 0-.001 0-3.387 0-6.681 1.395-9.039 3.826l-89.032 91.843c-3.527 3.639-4.529 9.004-2.555 13.67 1.976 4.666 6.526 7.681 11.593 7.681h35.451c9.966 34.807 29.352 66.257 56.141 91.047 3.04 2.812 7.784 2.63 10.599-.411 2.813-3.04 2.629-7.785-.411-10.599-25.181-23.302-43.284-52.955-52.354-85.752-1.511-5.467-6.505-9.285-12.146-9.285h-31.583l83.335-85.967 83.336 85.967h-28.971c-4.585 0-8.807 2.493-11.018 6.508-2.22 4.028-2.069 8.949.391 12.842 20.432 32.317 55.36 51.611 93.435 51.611 57.631 0 106.04-44.992 110.208-102.428.023-.326.282-.572.602-.572h71.776c.069 0 .254 0 .43.185.133.139.195.311.187.511-4.339 98.236-84.812 175.188-183.202 175.188-36.735 0-72.207-10.877-102.579-31.454-3.429-2.322-8.092-1.426-10.416 2.002-2.323 3.43-1.427 8.093 2.002 10.416 32.865 22.267 71.246 34.036 110.993 34.036 51.364 0 100.111-19.63 137.26-55.274 37.036-35.536 58.674-83.214 60.929-134.253.186-4.262-1.394-8.47-4.337-11.544z"/></g></svg>