<?xml version="1.0" encoding="iso-8859-1"?>
<!-- Generator: Adobe Illustrator 19.0.0, SVG Export Plug-In . SVG Version: 6.00 Build 0)  -->
<svg version="1.1" id="Layer_1" xmlns="http://www.w3.org/2000/svg" xmlns:xlink="http://www.w3.org/1999/xlink" x="0px" y="0px"
	 viewBox="0 0 511.999 511.999" style="enable-background:new 0 0 511.999 511.999;" xml:space="preserve">
<g>
	<g>
		<path d="M456.936,31.872c-8.279,0-14.892,6.712-14.892,14.992v22.962C403.459,31.214,351.447,5.824,293.604,0.88
			c-70.479-6.025-139.5,19.11-189.352,68.962c-5.855,5.855-5.855,15.346,0,21.201c5.854,5.855,15.346,5.855,21.201,0
			c43.584-43.584,103.942-65.557,165.597-60.288c51.401,4.394,98.931,27.799,134.233,65.161h-32.291
			c-8.279,0-14.992,6.612-14.992,14.892c0,8.279,6.712,14.992,14.992,14.992h63.758c8.475,0.095,15.177-6.795,15.177-14.992V46.864
			C471.927,38.585,465.215,31.872,456.936,31.872z"/>
	</g>
</g>
<g>
	<g>
		<path d="M219.059,443.58c-59.023-15.815-108.057-57.273-134.526-113.743C62.155,282.1,58.404,228.381,73.278,178.537L89.422,206.5
			c4.142,7.174,13.312,9.626,20.479,5.487c7.17-4.14,9.627-13.309,5.487-20.479l-31.971-55.375
			c-0.004-0.007-0.008-0.012-0.012-0.019c-4.077-7.016-13.193-9.668-20.467-5.468L7.563,162.616
			c-7.17,4.14-9.627,13.309-5.487,20.479c4.14,7.171,13.309,9.627,20.479,5.487l20.001-11.548
			C27.971,231.872,32.91,290.35,57.384,342.562c30.231,64.494,86.331,111.869,153.914,129.979c7.997,2.144,16.218-2.604,18.361-10.6
			C231.802,453.943,227.057,445.723,219.059,443.58z"/>
	</g>
</g>
<g>
	<g>
		<path d="M503.756,177.087c-2.144-7.997-10.363-12.742-18.362-10.6c-7.998,2.143-12.743,10.363-10.6,18.361
			c16.14,60.235,4.671,124.507-31.463,176.335c-29.554,42.387-73.161,71.937-122.546,83.871l16.107-27.898
			c4.14-7.17,1.683-16.339-5.487-20.479c-7.171-4.14-16.34-1.683-20.479,5.487l-31.971,55.375c-0.003,0.006-0.006,0.012-0.009,0.017
			c-4.1,7.146-1.68,16.318,5.496,20.462l55.375,31.971c7.172,4.14,16.341,1.681,20.479-5.487c4.14-7.17,1.683-16.339-5.487-20.479
			l-19.978-11.535c52.521-14.224,99.884-46.525,133.095-94.158C509.131,319.233,522.189,245.882,503.756,177.087z"/>
	</g>
</g>
<g>
	<g>
		<path d="M332.017,224.809h-44.975v-44.975c0-8.279-6.712-14.992-14.992-14.992c-8.279,0-14.992,6.712-14.992,14.992v59.967
			c0,8.279,6.712,14.992,14.992,14.992h59.967c8.279,0,14.992-6.712,14.992-14.992C347.009,231.521,340.297,224.809,332.017,224.809
			z"/>
	</g>
</g>
<g>
	<g>
		<path d="M272.05,104.876c-74.398,0-134.925,60.527-134.925,134.925s60.527,134.925,134.925,134.925
			s134.925-60.527,134.925-134.925S346.448,104.876,272.05,104.876z M272.05,344.742c-57.865,0-104.942-47.077-104.942-104.942
			c0-57.865,47.077-104.942,104.942-104.942s104.942,47.077,104.942,104.942C376.992,297.665,329.915,344.742,272.05,344.742z"/>
	</g>
</g>
<g>
</g>
<g>
</g>
<g>
</g>
<g>
</g>
<g>
</g>
<g>
</g>
<g>
</g>
<g>
</g>
<g>
</g>
<g>
</g>
<g>
</g>
<g>
</g>
<g>
</g>
<g>
</g>
<g>
</g>
</svg>
